<!-- public/icons.svg -->
<!-- Phosphor çizgisine yakın, tek renkli, stroke tabanlı minimal set.
     Şimdilik projede hemen kullanılanlar: grid, reels, tagged, heart, message, location, share.
     Gerektikçe kalan 13 ikon eklenir (onaylı 20’li setin geri kalanı). -->

<svg xmlns="http://www.w3.org/2000/svg" style="display:none">
  <defs>
    <style>
      .ph { fill: none; stroke: currentColor; stroke-width: 2; stroke-linecap: round; stroke-linejoin: round; }
      .ph-fill { fill: currentColor; stroke: none; }
    </style>
  </defs>

  <!-- GRID (Profile tabs) -->
  <symbol id="p-grid" viewBox="0 0 24 24">
    <rect class="ph" x="3" y="3" width="7.5" height="7.5" rx="1.2"/>
    <rect class="ph" x="13.5" y="3" width="7.5" height="7.5" rx="1.2"/>
    <rect class="ph" x="3" y="13.5" width="7.5" height="7.5" rx="1.2"/>
    <rect class="ph" x="13.5" y="13.5" width="7.5" height="7.5" rx="1.2"/>
  </symbol>

  <!-- REELS -->
  <symbol id="p-reels" viewBox="0 0 24 24">
    <rect class="ph" x="3" y="4" width="18" height="16" rx="3"/>
    <path class="ph-fill" d="M10 9 15 12 10 15Z" />
  </symbol>

  <!-- TAGGED -->
  <symbol id="p-tagged" viewBox="0 0 24 24">
    <path class="ph" d="M20 12 12 20 4 12 12 4 20 12Z"/>
    <circle class="ph-fill" cx="12" cy="12" r="2.2"/>
  </symbol>

  <!-- HEART -->
  <symbol id="p-heart" viewBox="0 0 24 24">
    <path class="ph" d="M20.5 8.6c-1-2.4-3.9-3.2-6-1.6L12 9.3l-2.5-2.3c-2.1-1.6-5-0.8-6 1.6-0.9 2 .1 4.3 1.8 5.8L12 21l6.7-6.6c1.7-1.5 2.7-3.8 1.8-5.8Z"/>
  </symbol>

  <!-- MESSAGE (paper plane benzeri) -->
  <symbol id="p-message" viewBox="0 0 24 24">
    <path class="ph" d="M3 12L21 4l-4.5 16-5.5-5.5L3 12Z"/>
    <path class="ph" d="M21 4l-9 8"/>
  </symbol>

  <!-- LOCATION (pin) -->
  <symbol id="p-location" viewBox="0 0 24 24">
    <path class="ph" d="M12 21s-6-5.1-6-10a6 6 0 1 1 12 0c0 4.9-6 10-6 10Z"/>
    <circle class="ph" cx="12" cy="11" r="2.5"/>
  </symbol>

  <!-- SHARE (paper plane) -->
  <symbol id="p-share" viewBox="0 0 24 24">
    <path class="ph" d="M3 12 21 4l-5 8 5 8-18-8Z"/>
  </symbol>
</svg>
